<?xml version="1.0" standalone="no"?>
<!DOCTYPE svg PUBLIC "-//W3C//DTD SVG 20010904//EN"
 "http://www.w3.org/TR/2001/REC-SVG-20010904/DTD/svg10.dtd">
<svg version="1.0" xmlns="http://www.w3.org/2000/svg"
 width="225.000000pt" height="225.000000pt" viewBox="0 0 225.000000 225.000000"
 preserveAspectRatio="xMidYMid meet">
<metadata>
Created by potrace 1.15, written by Peter Selinger 2001-2017
</metadata>
<g transform="translate(0.000000,225.000000) scale(0.100000,-0.100000)"
fill="#000000" stroke="none">
<path d="M772 2231 c-66 -23 -117 -63 -160 -126 -22 -32 -47 -55 -75 -67 -90
-40 -157 -139 -157 -230 0 -27 -4 -48 -8 -48 -16 0 -94 -74 -118 -112 -48 -76
-66 -216 -34 -268 6 -9 -3 -27 -30 -58 -22 -24 -46 -66 -56 -94 -22 -68 -16
-187 14 -245 l22 -42 -25 -53 c-46 -98 -29 -245 36 -314 14 -15 21 -39 23 -87
4 -76 36 -154 85 -209 38 -44 141 -98 185 -98 25 0 40 -11 79 -55 32 -37 69
-64 114 -87 60 -29 77 -33 148 -33 71 0 89 4 147 33 61 30 112 74 149 131 l15
24 23 -36 c30 -50 85 -95 151 -126 44 -20 70 -25 135 -26 71 0 88 4 148 33 46
23 81 50 114 88 38 44 53 54 78 54 45 0 148 54 186 98 49 55 81 133 85 209 2
47 9 72 23 87 44 49 56 87 56 186 0 80 -4 102 -23 138 l-22 42 21 43 c31 58
37 176 15 245 -10 28 -34 70 -55 93 l-38 43 14 46 c30 95 -16 232 -102 308
-26 23 -51 42 -55 42 -4 0 -10 26 -13 58 -8 99 -66 180 -154 220 -28 12 -53
34 -75 67 -97 145 -273 184 -412 92 -28 -19 -62 -50 -76 -70 l-24 -35 -29 36
c-42 53 -112 99 -168 111 -68 15 -95 13 -157 -8z m177 -91 c50 -25 105 -89
119 -139 7 -23 12 -112 12 -226 0 -158 -2 -186 -14 -182 -44 17 -84 18 -99 2
-10 -9 -17 -23 -17 -30 0 -21 29 -45 54 -45 13 0 35 -12 50 -26 l26 -27 0
-434 0 -435 -35 31 c-46 40 -101 68 -150 76 -22 3 -50 8 -62 11 -30 6 -63 -27
-56 -55 3 -13 16 -23 32 -26 81 -16 120 -29 153 -50 217 -143 112 -495 -148
-495 -99 0 -176 50 -239 154 -7 11 -28 18 -68 20 -77 5 -141 44 -182 110 -26
43 -30 59 -31 127 -1 75 -2 80 -37 118 -35 39 -57 93 -57 141 0 31 18 98 28
104 5 3 35 -9 67 -25 47 -24 70 -29 110 -27 48 3 50 4 53 35 3 28 0 33 -25 38
-147 30 -219 100 -231 226 -6 62 31 145 82 184 40 31 44 52 21 108 -45 107 19
246 135 295 49 20 132 10 182 -23 51 -34 96 -106 104 -167 6 -47 24 -78 45
-78 5 0 18 9 28 19 25 25 19 83 -17 163 -45 104 -148 176 -260 183 -56 4 -57
4 -53 32 15 123 165 186 272 113 24 -16 51 -30 60 -30 24 0 42 26 36 52 -7 26
-78 76 -119 85 -37 7 -35 25 5 59 68 57 155 71 226 34z m514 7 c40 -18 97 -65
97 -82 0 -7 -12 -15 -27 -18 -42 -9 -113 -59 -120 -85 -6 -26 12 -52 36 -52 9
0 36 14 61 31 41 28 51 30 107 27 70 -4 103 -23 141 -78 12 -18 22 -47 22 -64
0 -31 -1 -31 -56 -33 -142 -4 -261 -120 -289 -285 -6 -29 -3 -40 14 -57 37
-37 61 -21 72 50 11 67 53 135 108 174 37 26 51 30 111 30 60 0 73 -4 111 -30
89 -63 131 -182 95 -269 -24 -58 -20 -80 19 -110 95 -73 109 -217 30 -321 -29
-38 -115 -85 -154 -85 -39 0 -53 -14 -49 -46 3 -27 6 -29 53 -32 40 -2 63 3
110 27 32 16 62 28 67 25 10 -6 28 -73 28 -104 0 -48 -20 -95 -60 -144 -35
-42 -40 -53 -34 -82 25 -132 -78 -261 -214 -270 -39 -2 -60 -9 -67 -20 -63
-104 -140 -154 -239 -154 -146 1 -255 108 -264 261 -5 85 23 154 85 209 45 39
116 70 162 70 32 0 48 10 51 30 7 49 -16 61 -93 49 -68 -11 -121 -36 -172 -80
l-35 -31 0 435 0 434 26 27 c15 14 37 26 50 26 25 0 54 24 54 45 0 7 -7 21
-17 30 -15 16 -55 15 -99 -2 -12 -4 -14 25 -14 193 0 173 3 204 19 239 20 44
69 94 116 118 37 20 115 21 158 4z"/>
<path d="M482 1508 c-7 -7 -12 -28 -12 -47 0 -119 95 -244 207 -274 24 -6 43
-16 43 -23 0 -25 -57 -73 -96 -80 -49 -8 -64 -20 -64 -50 0 -32 27 -44 79 -34
64 12 122 56 151 117 23 47 30 53 77 68 58 20 123 68 123 94 0 9 -5 22 -12 29
-15 15 -54 16 -63 2 -16 -25 -86 -50 -143 -50 -110 0 -202 79 -218 188 -3 26
-11 53 -16 60 -13 15 -40 16 -56 0z"/>
<path d="M755 876 c-99 -32 -179 -90 -221 -162 -20 -35 -23 -47 -14 -63 18
-35 56 -27 86 19 47 71 119 115 222 133 58 11 67 15 70 35 2 13 -2 30 -8 38
-15 17 -80 17 -135 0z"/>
<path d="M483 529 c-34 -34 -4 -79 52 -79 34 0 93 -31 127 -67 34 -36 67 -109
68 -148 0 -37 16 -55 47 -55 34 0 45 29 33 91 -21 108 -86 196 -176 239 -58
27 -134 37 -151 19z"/>
<path d="M1713 1508 c-6 -7 -13 -33 -17 -58 -10 -61 -46 -121 -97 -155 -57
-40 -156 -47 -217 -16 -22 11 -43 25 -47 31 -9 14 -48 13 -63 -2 -7 -7 -12
-20 -12 -29 0 -26 65 -75 124 -93 44 -14 54 -22 65 -51 17 -47 56 -92 100
-114 78 -39 141 -33 141 13 0 30 -15 42 -64 50 -40 8 -96 53 -96 78 0 8 19 19
44 26 60 16 135 78 169 140 33 60 47 153 27 177 -15 18 -44 20 -57 3z"/>
<path d="M1361 877 c-7 -9 -11 -26 -9 -39 3 -20 12 -24 70 -35 102 -18 165
-56 218 -129 35 -49 71 -59 90 -23 25 46 -71 153 -184 205 -72 33 -166 43
-185 21z"/>
<path d="M1654 526 c-110 -35 -193 -131 -215 -251 -12 -64 0 -95 34 -95 30 0
47 18 47 48 0 101 107 222 195 222 39 0 65 18 65 43 0 47 -44 59 -126 33z"/>
</g>
</svg>
